<svg id="Layer_1" data-name="Layer 1" xmlns="http://www.w3.org/2000/svg" width="468.63" height="457.06" viewBox="0 0 468.63 457.06">
  <defs>
    <style>
      .cls-1, .cls-2 {
        fill: #221e1b;
      }

      .cls-1 {
        fill-rule: evenodd;
      }
    </style>
  </defs>
  <title>github-logo-freelogovectors.net</title>
  <g>
    <path class="cls-1" d="M250,21.47c-129.39,0-234.31,104.9-234.31,234.32,0,103.52,67.13,191.35,160.23,222.34,11.71,2.16,16-5.09,16-11.28,0-5.58-.21-24-.31-43.62-65.19,14.17-78.95-27.65-78.95-27.65-10.65-27.08-26-34.28-26-34.28-21.26-14.55,1.6-14.25,1.6-14.25,23.53,1.65,35.92,24.15,35.92,24.15,20.9,35.82,54.81,25.47,68.19,19.48,2.1-15.14,8.17-25.48,14.87-31.33-52-5.93-106.76-26-106.76-115.8,0-25.58,9.16-46.49,24.15-62.9-2.43-5.9-10.45-29.73,2.27-62,0,0,19.68-6.29,64.45,24a222.39,222.39,0,0,1,117.35,0c44.72-30.31,64.37-24,64.37-24,12.75,32.28,4.73,56.11,2.3,62,15,16.41,24.12,37.32,24.12,62.9,0,90-54.82,109.81-107,115.61,8.41,7.27,15.89,21.53,15.89,43.39,0,31.35-.26,56.58-.26,64.3,0,6.24,4.21,13.55,16.09,11.25,93.05-31,160.1-118.82,160.1-222.31C484.31,126.37,379.41,21.47,250,21.47Z" transform="translate(-15.69 -21.47)"/>
    <path class="cls-2" d="M104.43,357.89c-.51,1.17-2.35,1.52-4,.72s-2.66-2.35-2.11-3.52,2.34-1.53,4-.73,2.67,2.37,2.08,3.53Zm-2.88-2.13" transform="translate(-15.69 -21.47)"/>
    <path class="cls-2" d="M113.93,368.48c-1.12,1-3.31.55-4.79-1.08s-1.82-3.82-.69-4.87,3.27-.55,4.81,1.08,1.83,3.82.67,4.87Zm-2.24-2.4" transform="translate(-15.69 -21.47)"/>
    <path class="cls-2" d="M123.16,382c-1.43,1-3.78.07-5.23-2s-1.44-4.58,0-5.58,3.77-.1,5.24,2,1.43,4.61,0,5.63Zm0,0" transform="translate(-15.69 -21.47)"/>
    <path class="cls-2" d="M135.82,395c-1.29,1.42-4,1-6-.9s-2.62-4.56-1.34-6,4.06-1,6.07.9,2.66,4.58,1.29,6Zm0,0" transform="translate(-15.69 -21.47)"/>
    <path class="cls-2" d="M153.28,402.58c-.57,1.84-3.2,2.67-5.85,1.89s-4.39-3-3.85-4.8,3.19-2.72,5.87-1.89,4.38,2.94,3.83,4.8Zm0,0" transform="translate(-15.69 -21.47)"/>
    <path class="cls-2" d="M172.46,404c.06,1.93-2.19,3.53-5,3.57s-5.07-1.51-5.1-3.41,2.2-3.53,5-3.58,5.07,1.5,5.07,3.42Zm0,0" transform="translate(-15.69 -21.47)"/>
    <path class="cls-2" d="M190.3,401c.33,1.88-1.6,3.82-4.37,4.34s-5.23-.67-5.58-2.54,1.63-3.87,4.35-4.37,5.25.65,5.6,2.57Zm0,0" transform="translate(-15.69 -21.47)"/>
  </g>
</svg>
