<svg xmlns="http://www.w3.org/2000/svg" viewBox="0 0 484.48083 480"><defs><style>.a{fill:#fff;}.b{fill:none;}</style></defs><title>intuit-mailchimp-logo-freelogovectors.net</title><path class="a" d="M203.56205,248.50255a42.36023,42.36023,0,0,0-9.92721.6719,41.65978,41.65978,0,0,0-34.4922,47.76362q.05382.33357.113.66624c2.37833,22.44413,26.307,41.37043,48.45842,41.93383a37.18913,37.18913,0,0,0,6.79334-.4511c23.97052-3.8802,30.24659-28.58147,26.29544-52.84436C236.33966,258.84794,216.81471,249.19091,203.56205,248.50255Zm23.4876,64.90483a10.05265,10.05265,0,0,1-9.35115,4.42,12.60083,12.60083,0,0,1-11.60535-12.71807,31.06754,31.06754,0,0,1,2.41268-12.414,11.27511,11.27511,0,0,0-4.625-13.96471,13.06227,13.06227,0,0,0-9.53441-1.68813,12.25308,12.25308,0,0,0-7.80311,5.11562A26.419,26.419,0,0,0,183.684,288.54c-.12985.39314-.2329.701-.31118.9021-1.08611,2.76978-2.81926,3.57952-3.99121,3.42916a2.28661,2.28661,0,0,1-1.80571-1.69191,23.50786,23.50786,0,0,1,6.633-20.49509,21.496,21.496,0,0,1,17.86243-6.11372,21.15189,21.15189,0,0,1,16.21891,11.19491,24.50886,24.50886,0,0,1-1.98511,22.69778c-.271.57785-.5192,1.10686-.7311,1.57962a8.95375,8.95375,0,0,0-.229,8.67877,6.41191,6.41191,0,0,0,5.31979,2.55967,12.2569,12.2569,0,0,0,2.90518-.38769c1.23117-.27169,2.50431-.55247,3.27926.36953a1.82122,1.82122,0,0,1,.2004,2.14461Z" transform="translate(-77.75958)"/><path class="a" d="M509.88105,359.433a125.07171,125.07171,0,0,0,8.55923-39.739c0-16.751-9.48418-23.69405-15.52331-23.69405-.18477-.64669-1.37916-5.01458-3.0242-10.27258a82.59489,82.59489,0,0,0-3.34358-8.96138,32.44872,32.44872,0,0,0,5.83235-23.65348,29.93156,29.93156,0,0,0-8.7125-16.90583,70.8897,70.8897,0,0,0-30.76783-15.21718c-1.70963-.47747-7.34447-2.02241-7.83924-2.17358-.0388-.32267-.41153-18.45269-.75143-26.2364a89.8163,89.8163,0,0,0-3.46023-23.06171A61.74363,61.74363,0,0,0,434.8544,141.0043c19.52227-20.20776,31.7094-42.46748,31.67973-61.5636-.05542-36.72464-45.22224-47.83792-100.88133-24.82232-.061.02587-11.71083,4.95748-11.79391,4.99989-.05174-.05165-21.32058-20.888-21.64-21.16832C268.76024-16.82182,70.34488,203.4047,133.78221,256.89147l13.86358,11.72721a67.95019,67.95019,0,0,0-3.855,31.4224,61.87206,61.87206,0,0,0,21.40927,39.73164,65.18655,65.18655,0,0,0,42.01152,16.89113c24.68635,56.80711,81.08947,91.65457,147.22429,93.61657C425.37819,452.384,484.9292,419.14415,509.88105,359.433Zm14.56142-67.22714a42.30256,42.30256,0,0,1,8.83428,27.48813,138.09605,138.09605,0,0,1-9.56725,45.10761l-.13437.33737a156.46635,156.46635,0,0,1-64.11494,74.17571,190.99557,190.99557,0,0,1-98.68811,25.87691h-.00739c-2.24135,0-4.51772-.035-6.7683-.10146a191.55758,191.55758,0,0,1-96.64052-28.52614,165.42746,165.42746,0,0,1-59.91653-65.79281,81.99478,81.99478,0,0,1-42.078-19.90725,76.62755,76.62755,0,0,1-26.33324-49.34423,85.35147,85.35147,0,0,1,1.59893-27.88086l-6.43606-5.44232a50.44685,50.44685,0,0,1-17.42721-36.03336,102.31711,102.31711,0,0,1,7.24292-41.7687c13.21176-36.07022,43.6049-79.0208,81.30741-114.8955a302.81232,302.81232,0,0,1,55.61667-42.66476A115.47529,115.47529,0,0,1,306.8983,14.80753a51.75819,51.75819,0,0,1,35.07339,12.47729c.55574.48494,8.88789,8.63382,15.20763,14.82448,1.58591-.66921,2.72688-1.15062,2.76013-1.1633A158.48541,158.48541,0,0,1,419.1139,27.81394c37.77256,0,62.20961,20.25572,62.25757,51.60446.02957,19.34312-9.46755,41.02745-26.97564,62.019a85.62814,85.62814,0,0,1,10.68427,23.8784,105.012,105.012,0,0,1,4.05253,26.61249c.1699,3.87531.34342,10.09376.48375,15.5822a82.78541,82.78541,0,0,1,34.79639,18.47848,44.42563,44.42563,0,0,1,12.61363,24.743,45.59632,45.59632,0,0,1-4.09854,27.16965c.36745,1.05455.74957,2.19944,1.13,3.41254.33047,1.05822.6425,2.07775.93417,3.04559a31.41715,31.41715,0,0,1,9.4508,7.84606Z" transform="translate(-77.75958)"/><path class="a" d="M479.47208,273.86515a22.40552,22.40552,0,0,0,7.01566-17.76409,15.44845,15.44845,0,0,0-4.41434-8.75746,55.0798,55.0798,0,0,0-24.21929-11.59754c-4.06807-1.15423-6.8281-1.89349-9.80174-2.88277-5.28838-1.76-7.90146-3.17729-8.4933-13.22973-.25836-4.39637-1.017-19.71215-1.29-26.0408-.48192-11.08992-1.80311-26.24824-11.10455-32.5065a15.48708,15.48708,0,0,0-7.95461-2.57,14.88016,14.88016,0,0,0-4.72.46688,24.93263,24.93263,0,0,0-12.36527,7.066,42.31544,42.31544,0,0,1-32.29477,10.90095c-6.51064-.276-13.40981-1.30061-21.31857-1.77489-1.53922-.09079-3.08231-.18712-4.62321-.26875a42.6232,42.6232,0,0,0-41.07221,37.61759c-4.528,31.495,18.03116,47.77048,24.54364,57.32085a8.00991,8.00991,0,0,1,1.79212,4.28148,6.86631,6.86631,0,0,1-2.318,4.51116l.00184.00932a81.29419,81.29419,0,0,0-17.55656,75.73069A62.91268,62.91268,0,0,0,312.579,363.563c16.46079,38.89073,67.52521,57.00219,117.41326,40.53032a121.75781,121.75781,0,0,0,18.95292-8.09631,99.67089,99.67089,0,0,0,29.02356-21.92851A87.62306,87.62306,0,0,0,502.133,326.15547c1.5026-10.02278-.69808-13.90221-3.69415-15.7679a10.93752,10.93752,0,0,0-6.96879-1.28566,97.56819,97.56819,0,0,0-6.637-22.87794Z" transform="translate(-77.75958)"/><path class="a" d="M397.71568,123.66129c.805.18476,1.31639-1.20572.5963-1.60944a90.2634,90.2634,0,0,0-38.47971-10.07.70011.70011,0,0,1-.5502-1.119,39.148,39.148,0,0,1,7.24107-7.25645.7227.7227,0,0,0-.48561-1.29238,102.22257,102.22257,0,0,0-46.025,16.22579.70951.70951,0,0,1-1.0893-.74294,50.4941,50.4941,0,0,1,4.87047-11.86916.68138.68138,0,0,0-.9121-.93107A186.783,186.783,0,0,0,270.448,147.78306a.71388.71388,0,0,0,.9545,1.049,160.27865,160.27865,0,0,1,56.60411-24.98474,156.885,156.885,0,0,1,69.70886-.18619" transform="translate(-77.75958)"/><path class="a" d="M338.99554,67.40547S321.72378,47.40969,316.51031,45.9348C284.4334,37.27906,215.14337,84.997,170.9016,148.04116c-17.90132,25.50816-43.52739,70.68027-31.27375,93.9138A93.71857,93.71857,0,0,0,154.27049,256.053a54.55776,54.55776,0,0,1,34.46592-21.95736,280.17921,280.17921,0,0,1,88.46121-124.16183,451.7786,451.7786,0,0,1,61.79792-42.52837" transform="translate(-77.75958)"/><path d="M225.8882,312.5408a1.93488,1.93488,0,0,1,.19476,2.18021,9.52735,9.52735,0,0,1-8.98656,4.489A12.50207,12.50207,0,0,1,205.943,306.29288a33.21414,33.21414,0,0,1,2.31887-12.60991,11.78331,11.78331,0,0,0-4.44289-14.18,11.985,11.985,0,0,0-9.16293-1.71575,11.7484,11.7484,0,0,0-7.49656,5.19515,27.70463,27.70463,0,0,0-2.74955,6.48075c-.123.39935-.22215.71294-.29732.91546-1.044,2.81607-2.70848,3.63712-3.83625,3.48628-.53315-.07375-1.26627-.43027-1.73618-1.71921a24.81126,24.81126,0,0,1,6.37559-20.81665,19.99294,19.99294,0,0,1,17.16333-6.2066,20.35616,20.35616,0,0,1,15.58447,11.36733,26.12422,26.12422,0,0,1-1.90532,23.05348c-.26145.58448-.50073,1.121-.70238,1.60608a9.53972,9.53972,0,0,0-.22038,8.8134,6.05014,6.05014,0,0,0,5.111,2.59847,11.20723,11.20723,0,0,0,2.79054-.39424c1.18421-.27764,2.40773-.5622,3.15109.37367m291.91393,7.288a125.29124,125.29124,0,0,1-8.503,39.657c-24.78982,59.58449-83.95047,92.75583-154.42757,90.65617-65.7006-1.95748-121.7362-36.733-146.26112-93.42057a64.59348,64.59348,0,0,1-41.73445-16.85559A61.81979,61.81979,0,0,1,145.606,300.21713,68.08675,68.08675,0,0,1,149.4358,268.861L135.66259,257.1577C72.6414,203.78331,269.755-15.98044,332.80035,39.17649,333.11823,39.45415,354.246,60.24872,354.299,60.3c.084-.04284,11.65734-4.96546,11.71613-4.98948C421.3107,32.34276,466.18088,43.43243,466.23723,80.07812c.02906,19.05807-12.07794,41.27168-31.47129,61.43535A61.69273,61.69273,0,0,1,450.65452,169.966a89.91969,89.91969,0,0,1,3.43816,23.01576c.33663,7.76624.70917,25.85948.74672,26.18156.49217.14907,6.0903,1.69,7.78714,2.16819a70.30939,70.30939,0,0,1,30.56727,15.18621,29.9023,29.9023,0,0,1,8.65526,16.86929,32.48774,32.48774,0,0,1-5.79289,23.60361,82.90086,82.90086,0,0,1,3.32193,8.94372c1.63194,5.24833,2.8195,9.60362,3.00234,10.2498,5.99925-.00016,15.42169,6.92788,15.42169,23.64465ZM239.29557,287.13235c-4.28576-27.82357-23.05029-37.62943-35.78266-38.3288a38.59481,38.59481,0,0,0-9.54037.68029c-22.7255,4.59869-35.56042,23.98935-33.03486,49.18532a50.8983,50.8983,0,0,0,46.56359,42.5896,33.80675,33.80675,0,0,0,6.52769-.45934C237.06212,336.85922,243.09252,311.77294,239.29557,287.13235Zm38.84313-176.6238a448.82965,448.82965,0,0,1,61.39234-42.439s-17.15619-19.95294-22.33732-21.42338c-31.866-8.64037-100.704,38.97817-144.6548,101.88941-17.78374,25.45481-43.24167,70.53327-31.06975,93.717a93.21172,93.21172,0,0,0,14.54715,14.06859A54.18367,54.18367,0,0,1,190.25766,234.411,279.54945,279.54945,0,0,1,278.1387,110.50855Zm69.25837,220.18024a21.05544,21.05544,0,0,0,14.87184,15.59406,66.96775,66.96775,0,0,0,11.71613,3.1915c50.40672,8.6969,97.53077-20.21161,108.14113-27.49278.79634-.54676,1.3226-.01368.68357.95132a16.87852,16.87852,0,0,1-1.039,1.48606c-12.98523,16.80075-47.89469,36.25651-93.31336,36.24962-19.80866-.00342-39.607-7.00348-46.87627-17.75888-11.27822-16.68932-.55885-41.04887,18.23348-38.51044.02217.00343,6.43027.73195,8.23136.93226A171.67067,171.67067,0,0,0,453.568,291.60413c25.6391-11.938,35.32477-25.076,33.8718-35.71108a15.30569,15.30569,0,0,0-4.42065-8.69513,55.28782,55.28782,0,0,0-24.23963-11.51648c-4.0721-1.14667-6.83525-1.87854-9.81206-2.86236-5.29216-1.74835-7.90835-3.15553-8.50138-13.13794-.258-4.36555-1.01673-19.574-1.29178-25.85948-.48359-11.01249-1.80286-26.065-11.11586-32.28a15.56851,15.56851,0,0,0-7.95967-2.55219,15.022,15.022,0,0,0-4.72659.46453,25.00811,25.00811,0,0,0-12.37525,7.01716,42.5825,42.5825,0,0,1-32.32744,10.824c-6.51577-.27254-13.42106-1.29072-21.33629-1.762-1.53963-.09087-3.08617-.18678-4.62917-.26564a42.54207,42.54207,0,0,0-41.11088,37.355c-4.53184,31.2756,18.04872,47.43706,24.56768,56.92066a7.91614,7.91614,0,0,1,1.79429,4.25248,6.81214,6.81214,0,0,1-2.32064,4.47867v.01032a80.25666,80.25666,0,0,0-17.57176,75.20225,62.1884,62.1884,0,0,0,3.3031,9.122c16.47649,38.62013,67.58889,56.60351,117.524,40.245a122.47052,122.47052,0,0,0,18.97131-8.03534,99.72847,99.72847,0,0,0,29.05153-21.77822A86.77827,86.77827,0,0,0,503.09936,325.461c1.50337-9.955-.69709-13.80461-3.69783-15.65752a11.03481,11.03481,0,0,0-6.97542-1.27862,96.33191,96.33191,0,0,0-6.64216-22.71922A145.49269,145.49269,0,0,1,438.22579,309.531a192.03692,192.03692,0,0,1-63.59676,6.8976c-13.79009-1.11753-22.91347-5.15577-26.34482,6.03023a148.65452,148.65452,0,0,0,64.84605,6.616,1.17272,1.17272,0,0,1,1.28621,1.047l.00054.00545a1.2529,1.2529,0,0,1-.72791,1.25138S388.07528,343.30738,347.39707,330.68879ZM272.38166,149.32406a158.88583,158.88583,0,0,1,56.23381-24.93033,155.18648,155.18648,0,0,1,69.25323-.18678c.79788.18334,1.30726-1.20328.593-1.60415a89.38317,89.38317,0,0,0-38.22969-10.051.69818.69818,0,0,1-.54683-1.11585,39.02066,39.02066,0,0,1,7.1958-7.24165.72229.72229,0,0,0-.48361-1.29063,101.28492,101.28492,0,0,0-45.72457,16.19261.7044.7044,0,0,1-1.08166-.74042,50.47886,50.47886,0,0,1,4.83763-11.84379.67912.67912,0,0,0-.90571-.93074,185.7607,185.7607,0,0,0-52.08991,42.69946.70969.70969,0,0,0,.94848,1.04328ZM405.12144,255.48789a6.64384,6.64384,0,0,0,8.73285-1.45129c1.27131-2.4608-.57464-5.79843-4.1251-7.45633a6.64335,6.64335,0,0,0-8.73285,1.45465C399.7233,250.494,401.571,253.83167,405.12144,255.48789Zm10.89-39.90539a30.07285,30.07285,0,0,0,5.3769,12.23685,34.26752,34.26752,0,0,1,8.36152,0,25.87654,25.87654,0,0,0,.40843-15.04368c-2.00679-9.12263-4.72264-14.64391-10.3347-13.78555C414.21325,199.85014,414.00641,206.45987,416.0114,215.5825Zm11.93851,20.95633a7.04517,7.04517,0,1,0,5.10108,6.88858A6.188,6.188,0,0,0,427.94991,236.53883Z" transform="translate(-77.75958)"/><path d="M334.78059,235.72358c-.89529-.126-1.2766-.509-1.38913-1.01624-.34771-1.57391,2.07278-4.164,4.6243-6.03359a26.88964,26.88964,0,0,1,26.15174-3.13942,22.40549,22.40549,0,0,1,9.86339,7.93841c.9121,1.48825,1.08847,2.64222.49889,3.24693-.91882.96921-3.262-.1411-7.07671-1.81411a31.22117,31.22117,0,0,0-14.74805-3.17637A163.44694,163.44694,0,0,0,334.78059,235.72358Zm38.02073,7.82754A14.45981,14.45981,0,0,0,359.78,239.28293a17.99609,17.99609,0,0,0-9.467,3.94568,6.074,6.074,0,0,0-2.42226,3.78275,1.159,1.159,0,0,0,.37971.90537,1.19672,1.19672,0,0,0,.818.31076,15.1503,15.1503,0,0,0,3.63494-1.00785,31.64625,31.64625,0,0,1,15.99609-1.66125c2.49608.28051,3.67525.43673,4.22285-.41993A1.40141,1.40141,0,0,0,372.80132,243.55112Z" transform="translate(-77.75958)"/><rect class="b" width="484.48083" height="480"/></svg>