<svg id="Layer_1" data-name="Layer 1" xmlns="http://www.w3.org/2000/svg" viewBox="0 0 727.8 153.75"><defs><style>.cls-1{fill:#3395ff;}.cls-2{fill:#072654;}</style></defs><title>razorpay-logo</title><path class="cls-1" d="M57.9,338.54l-6,22.27,34.63-22.4-22.65,84.5,23,0,33.46-124.8" transform="translate(-11.1 -298.13)"/><path class="cls-2" d="M20.63,387.41,11.1,422.93H58.24l19.29-72.26-56.9,36.74m163.75-31.28a15,15,0,0,1-6.68,9.44q-4.95,3-13.93,3h-19l6.68-24.89h19c6,0,10.08,1,12.31,3s2.77,5.14,1.62,9.45m19.69-.54q3.63-13.49-3-20.74t-23.23-7.22H135.4L109.86,423h20.61l10.3-38.41h13.52a14.9,14.9,0,0,1,7.16,1.46,6.49,6.49,0,0,1,3.09,5.23L168.22,423h22.09l-3.58-29.57q-1.09-9.91-9.07-11.64a39.15,39.15,0,0,0,17-9.76,35.62,35.62,0,0,0,9.39-16.32m50.11,33.18c-1.73,6.46-4.38,11.34-8,14.75a18,18,0,0,1-12.88,5.11c-5.09,0-8.54-1.65-10.37-5s-1.89-8.18-.19-14.52,4.4-11.29,8.13-14.86A18.26,18.26,0,0,1,244,369c5,0,8.42,1.73,10.14,5.16s1.81,8.37.08,14.78Zm9-33.72-2.58,9.64a15.25,15.25,0,0,0-6.47-8.3,21.81,21.81,0,0,0-11.9-3.07,33.71,33.71,0,0,0-16.7,4.49,44.23,44.23,0,0,0-14,12.68,55.68,55.68,0,0,0-8.8,18.59c-1.84,7-2.23,13.1-1.11,18.4s3.57,9.41,7.29,12.25,8.57,4.31,14.45,4.31A32.51,32.51,0,0,0,247.8,413l-2.69,10H265l18.21-67.9h-20Zm91.67,0h-58l-4.05,15.13h33.73L282,408.8,278.18,423H338l4.05-15.13H305.94l45.28-39.1m54.69,20c-1.79,6.68-4.45,11.71-8,15a18,18,0,0,1-12.76,5q-15.68,0-10.32-19.94c1.76-6.61,4.44-11.57,8-14.92a18.25,18.25,0,0,1,13-5c5,0,8.37,1.66,10.1,5s1.72,8.32,0,14.93m11.67-31.05c-4.59-2.85-10.44-4.28-17.59-4.28a47.41,47.41,0,0,0-20.09,4.26A43.49,43.49,0,0,0,364.15,370a49.76,49.76,0,0,0-9.38,18.74c-1.88,7.12-2.11,13.37-.65,18.72a20.21,20.21,0,0,0,9.14,12.29c4.65,2.87,10.56,4.29,17.82,4.29a46.52,46.52,0,0,0,19.9-4.29,44,44,0,0,0,15.67-12.33A50,50,0,0,0,426,388.66q2.88-10.71.69-18.74a20.35,20.35,0,0,0-9.07-12.31m71.1,15.67,5.11-18.48a15.07,15.07,0,0,0-6.84-1.34,27.21,27.21,0,0,0-13.17,3.42,28.68,28.68,0,0,0-9.34,8.12l2.65-9.95-5.78,0H447.16l-18.32,67.87h20.22l9.5-35.48a22.5,22.5,0,0,1,7.47-12.1,20.6,20.6,0,0,1,13.4-4.34,19.88,19.88,0,0,1,9.3,2.27M545,389.08c-1.73,6.33-4.34,11.17-7.91,14.52a18.18,18.18,0,0,1-12.87,5c-5,0-8.41-1.69-10.22-5.07s-1.88-8.3-.15-14.74,4.38-11.37,8-14.79a18.22,18.22,0,0,1,12.94-5.16c4.92,0,8.22,1.76,10,5.34s1.81,8.52.11,14.86m14.13-31.26q-5.61-4.5-14.32-4.5a31.64,31.64,0,0,0-14.52,3.48,30.24,30.24,0,0,0-11.18,9.5l.07-.46L522.49,355H502.75l-5,18.78-.15.66-20.74,77.37h20.24l10.45-39a14,14,0,0,0,6.37,8.15,22.64,22.64,0,0,0,12,2.93,35.22,35.22,0,0,0,16.81-4.26,41.58,41.58,0,0,0,13.86-12.25,54,54,0,0,0,8.68-18.4c1.89-7,2.27-13.18,1.19-18.61s-3.51-9.66-7.26-12.64m67.09,31c-1.73,6.41-4.38,11.33-8,14.71a18,18,0,0,1-12.87,5.1c-5.11,0-8.56-1.65-10.37-5s-1.88-8.18-.19-14.51,4.38-11.3,8.11-14.87A18.32,18.32,0,0,1,616,368.88q7.49,0,10.14,5.14t.06,14.79Zm9-33.75-2.59,9.65a15.09,15.09,0,0,0-6.45-8.3,21.75,21.75,0,0,0-11.91-3.07,33.81,33.81,0,0,0-16.75,4.49,44.32,44.32,0,0,0-14,12.64,55.67,55.67,0,0,0-8.79,18.59c-1.87,7-2.23,13.1-1.12,18.42s3.55,9.4,7.3,12.25,8.57,4.28,14.44,4.28a32.29,32.29,0,0,0,24.41-11.11L617.06,423H637l18.2-67.88H635.26Zm103.66,0v0H726.65c-.4,0-.74,0-1.1,0h-6.36l-3.26,4.53-.81,1.07-.34.54-25.83,36-5.34-42.14H662.45l10.72,64L649.5,451.88h21.09l5.73-8.12c.16-.24.3-.44.5-.69l6.68-9.49.19-.27,29.93-42.44,25.24-35.73,0,0h0Z" transform="translate(-11.1 -298.13)"/></svg>