<svg id="Layer_1" data-name="Layer 1" xmlns="http://www.w3.org/2000/svg" width="197" height="87" viewBox="0 0 197 87"><defs><style>.cls-1{fill:#112640;}.cls-2{fill:none;}</style></defs><title>stripe-logo-freelogovectors.net_</title><path class="cls-1" d="M190.82,105.79H166.25c.57,5.89,4.87,7.78,9.75,7.78a25.75,25.75,0,0,0,12.35-2.9v10.12a25.33,25.33,0,0,1-13.9,3.35c-12.23,0-20.83-7.62-20.83-22.8,0-12.77,7.29-22.92,19.21-22.92S191,88.42,191,101.28C191,102.5,190.88,105.12,190.82,105.79Zm-18-17.13c-3.14,0-6.62,2.22-6.62,7.86h13C179.11,90.88,175.85,88.66,172.77,88.66Zm-38.93,35.48A13.71,13.71,0,0,1,125,121l-.06,14.12-12.56,2.65V79.24h11.46l.24,3.11a14.34,14.34,0,0,1,9.85-3.93c8.84,0,17.13,7.92,17.13,22.56C151.06,116.92,142.83,124.14,133.84,124.14Zm-2.9-34.6a7.58,7.58,0,0,0-6,2.47l.06,18.66a7.48,7.48,0,0,0,5.94,2.38c4.64,0,7.75-5,7.75-11.8C138.69,94.7,135.52,89.54,130.94,89.54ZM95.09,79.24h12.59v44H95.09Zm0-14.33,12.59-2.65V72.5L95.09,75.18V64.91ZM81.92,93.42v29.84H69.36v-44H80.64L81,83c3-5.4,9.36-4.3,11-3.72V90.79C90.46,90.28,85.06,89.48,81.92,93.42ZM55.86,107.8c0,7.41,7.92,5.13,9.51,4.46V122.5c-1.68.91-4.7,1.64-8.81,1.64a12.65,12.65,0,0,1-13-12.27v-.65l0-40.15,12.26-2.62V79.24H65.4V90H55.86v17.8Zm-15,2.14c0,9-7,14.2-17.47,14.2a34,34,0,0,1-13.6-2.83v-12c4.21,2.29,9.45,4,13.6,4,2.8,0,4.66-.73,4.66-3,0-6-19.08-3.78-19.08-17.68,0-8.87,7-14.17,17.13-14.17A33,33,0,0,1,38.6,80.7V92.53A28.11,28.11,0,0,0,26.1,89.3c-2.62,0-4.39.76-4.39,2.74,0,5.64,19.18,3,19.18,17.93Z" transform="translate(-1.5 -56.5)"/><rect class="cls-2" width="197" height="87"/></svg>